Coordinates
version=1
nRows=8
nColumns=63
inDegrees=yes

Units are S.I. units (second, meters, Newtons, ...)
If the header above contains a line with 'inDegrees', this indicates whether rotational values are in degrees (yes) or radians (no).

endheader
time	pelvis_tilt	pelvis_list	pelvis_rotation	pelvis_tx	pelvis_ty	pelvis_tz	hip_flexion_r	hip_adduction_r	hip_rotation_r	knee_angle_r	knee_angle_r_beta	ankle_angle_r	subtalar_angle_r	mtp_angle_r	hip_flexion_l	hip_adduction_l	hip_rotation_l	knee_angle_l	knee_angle_l_beta	ankle_angle_l	subtalar_angle_l	mtp_angle_l	L5_S1_Flex_Ext	L5_S1_Lat_Bending	L5_S1_axial_rotation	L4_L5_Flex_Ext	L4_L5_Lat_Bending	L4_L5_axial_rotation	L3_L4_Flex_Ext	L3_L4_Lat_Bending	L3_L4_axial_rotation	L2_L3_Flex_Ext	L2_L3_Lat_Bending	L2_L3_axial_rotation	L1_L2_Flex_Ext	L1_L2_Lat_Bending	L1_L2_axial_rotation	L1_T12_Flex_Ext	L1_T12_Lat_Bending	L1_T12_axial_rotation	Abs_r3	Abs_r2	Abs_r1	Abs_t1	Abs_t2	neck_flexion	neck_bending	neck_rotation	arm_flex_r	arm_add_r	arm_rot_r	elbow_flex_r	pro_sup_r	wrist_flex_r	wrist_dev_r	arm_flex_l	arm_add_l	arm_rot_l	elbow_flex_l	pro_sup_l	wrist_flex_l	wrist_dev_l
3.728814	-6.645160	2.756823	93.815735	0.203099	0.975149	0.704644	-6.990595	-4.274712	-19.923125	11.248033	0.196315	18.894945	18.534494	0.000000	-5.423588	2.296002	-3.622787	9.522464	0.166198	17.005626	6.840201	0.000000	-0.942514	-1.427212	-5.975035	-1.750344	-1.898192	-6.348474	-1.548457	-3.470123	-6.348474	-1.077200	-3.470123	-5.228155	-0.875219	-2.910370	-4.854716	-0.538553	-2.210751	-4.481276	-6.732287	-16.144904	-33.231350	0.000000	0.000000	-2.037405	24.590706	7.746156	20.328869	-0.151644	173.426292	0.049163	0.478409	-74.722672	-24.212093	-9.349978	-23.825073	112.542574	0.384373	2.246538	-8.467312	-11.032524
3.745763	-6.429617	2.523751	93.831598	0.202696	0.972879	0.700803	-7.039575	-4.016922	-19.877619	11.104924	0.193817	19.436237	18.560226	0.000000	-5.454439	2.143903	-2.873684	9.368826	0.163517	17.687735	5.966463	0.000000	-0.864871	-1.296413	-5.420930	-1.606152	-1.724229	-5.759738	-1.420896	-3.152098	-5.759738	-0.988461	-3.152098	-4.743314	-0.803119	-2.643645	-4.404506	-0.494187	-2.008143	-4.065697	-6.177686	-14.665278	-30.149586	0.000000	0.000000	-0.281111	22.534485	5.804347	19.262490	-1.097733	170.238350	0.054160	0.500084	-69.227458	-24.167456	-7.506271	-23.450797	114.191402	0.397255	2.107343	-6.634429	-11.706401
3.762712	-6.149038	2.285807	93.794281	0.202100	0.970619	0.697273	-7.040477	-3.719631	-19.747634	10.988498	0.191785	19.922740	18.574228	0.000000	-5.463166	1.956740	-2.044315	9.238509	0.161242	18.221397	4.777497	0.000000	-0.789207	-1.155412	-4.872170	-1.465636	-1.536698	-5.176681	-1.296588	-2.809268	-5.176681	-0.901984	-2.809268	-4.263149	-0.732857	-2.356116	-3.958638	-0.450953	-1.789733	-3.654128	-5.637224	-13.070248	-27.097550	0.000000	0.000000	1.603760	20.161385	4.262808	18.443327	-1.828211	167.605646	0.056397	0.522466	-61.896112	-24.139859	-5.524994	-22.859344	115.664331	0.408269	1.924715	-4.838324	-12.706796
3.779661	-5.808337	2.053385	93.774315	0.201250	0.968398	0.694136	-7.011705	-3.381202	-19.610620	10.893591	0.190129	20.360066	18.590154	0.000000	-5.450449	1.727743	-1.121441	9.132747	0.159396	18.620521	3.371582	0.000000	-0.716604	-1.007230	-4.345868	-1.330805	-1.339616	-4.617485	-1.177309	-2.448979	-4.617485	-0.819007	-2.448979	-3.802635	-0.665438	-2.053944	-3.531018	-0.409468	-1.560199	-3.259401	-5.118631	-11.393988	-24.170415	0.000000	0.000000	3.519765	17.599226	3.161857	17.838913	-2.314046	165.652895	0.042154	0.545273	-53.109143	-24.129043	-3.441321	-22.033899	116.961747	0.418564	1.705733	-3.077988	-13.975979
3.796610	-5.539066	1.837925	93.841173	0.200600	0.966458	0.691551	-6.973934	-3.099945	-19.528851	10.808225	0.188639	20.748530	18.595998	0.000000	-5.422275	1.552603	-0.132123	9.033101	0.157657	18.831876	1.911429	0.000000	-0.646671	-0.876274	-3.880227	-1.200934	-1.165445	-4.122741	-1.062417	-2.130573	-4.122741	-0.739081	-2.130573	-3.395198	-0.600499	-1.786899	-3.152684	-0.369508	-1.357349	-2.910170	-4.619110	-9.912590	-21.580657	0.000000	0.000000	5.284867	15.083951	2.578847	17.821986	-1.370960	169.413642	-2.624665	-2.361479	-41.201128	-25.793135	-1.300586	-21.135757	117.999496	0.427605	1.454988	-1.216116	-15.489140
3.813559	-5.126928	1.636342	93.933790	0.199334	0.964449	0.689460	-6.896573	-2.709551	-19.445122	10.756474	0.187736	21.107988	18.607654	0.000000	-5.352428	1.270045	0.992325	8.983657	0.156794	19.045709	0.256300	0.000000	-0.580134	-0.727952	-3.421642	-1.077366	-0.968176	-3.635495	-0.953101	-1.769943	-3.635495	-0.663035	-1.769943	-2.993937	-0.538712	-1.484440	-2.780084	-0.331488	-1.127598	-2.566231	-4.143836	-8.234740	-19.030146	0.000000	0.000000	7.097610	12.449609	2.236190	17.699641	-0.974389	170.508752	-3.713384	-2.765814	-29.545086	-26.495096	0.935544	-19.858184	119.060034	0.433724	1.185884	0.642682	-17.142465
3.830508	-4.594034	1.448284	94.063546	0.197508	0.962416	0.687914	-6.776037	-2.228714	-19.376335	10.740701	0.187461	21.439486	18.625723	0.000000	-5.229221	0.898078	2.231244	8.991323	0.156928	19.293208	-1.521328	0.000000	-0.516703	-0.567679	-2.977419	-0.959568	-0.755013	-3.163508	-0.848891	-1.380255	-3.163508	-0.590539	-1.380255	-2.605242	-0.479810	-1.157611	-2.419153	-0.295244	-0.879335	-2.233064	-3.690755	-6.421699	-16.559511	0.000000	0.000000	8.914914	9.761607	2.014694	17.496133	-1.056252	169.362926	-3.467919	-1.474530	-18.327029	-26.414493	3.259438	-18.224551	120.334214	0.434257	0.926087	2.494048	-18.801357
3.847458	-3.959666	1.264798	94.247002	0.195195	0.960381	0.686923	-6.609516	-1.669795	-19.352666	10.750436	0.187631	21.738067	18.648137	0.000000	-5.036093	0.449665	3.559554	9.061146	0.158147	19.601669	-3.339568	0.000000	-0.455606	-0.400327	-2.558022	-0.846107	-0.532435	-2.717898	-0.748516	-0.973355	-2.717898	-0.520712	-0.973355	-2.238269	-0.423076	-0.816346	-2.078393	-0.260333	-0.620106	-1.918516	-3.254351	-4.528577	-14.226950	0.000000	0.000000	10.643859	7.178696	1.928362	17.208751	-1.540793	166.270064	-2.087831	0.844996	-7.746497	-25.658229	5.645012	-16.257536	121.871684	0.428573	0.761654	4.371449	-20.382559
